<svg width="24" height="24" viewBox="0 0 24 24" fill="none" xmlns="http://www.w3.org/2000/svg">
<path fill-rule="evenodd" clip-rule="evenodd" d="M8.70744 13.393L13.5953 18.7471C14.1517 19.3565 15.0475 19.3496 15.5963 18.7317C16.145 18.1138 16.1388 17.1188 15.5824 16.5094L11.4653 11.9995L15.5824 7.48963C16.1388 6.88019 16.145 5.88521 15.5963 5.26728C15.0475 4.64935 14.1517 4.64247 13.5953 5.2519L8.70744 10.606C8.60137 10.6746 8.50164 10.7597 8.41132 10.8615C8.13157 11.1765 7.99605 11.5895 8.00414 11.9995C7.99605 12.4095 8.13157 12.8225 8.41132 13.1375C8.50164 13.2393 8.60137 13.3244 8.70744 13.393Z" fill="white"/>
</svg>
