<svg width="24" height="24" viewBox="0 0 24 24" fill="none" xmlns="http://www.w3.org/2000/svg">
<path d="M8.24736 11.4454H11.4917V14.851H8.24736V11.4454Z" fill="#979797"/>
<path d="M8.24736 15.6296H11.4917V19.0342H8.24736V15.6296Z" fill="#979797"/>
<path d="M4.00017 15.6296H7.23162V19.0342H4.00017V15.6296Z" fill="#979797"/>
<path d="M4.00017 11.4454H7.23162V14.851H4.00017V11.4454Z" fill="#979797"/>
<path d="M12.5083 15.6296H15.7526V19.0342H12.5083V15.6296Z" fill="#979797"/>
<path d="M16.7683 11.4454H19.9998V14.851H16.7683V11.4454Z" fill="#979797"/>
<path d="M19.9998 6.62687H16.9514V5.3335H15.6295V6.62687H8.37032V5.3335H7.04842V6.62687H4V10.598H20L19.9998 6.62687Z" fill="#979797"/>
<path d="M12.5083 11.4454H15.7526V14.851H12.5083V11.4454Z" fill="#979797"/>
<path d="M16.7683 15.6296H19.9998V19.0342H16.7683V15.6296Z" fill="#979797"/>
</svg>
