<svg width="24" height="24" viewBox="0 0 24 24" fill="none" xmlns="http://www.w3.org/2000/svg">
<path fill-rule="evenodd" clip-rule="evenodd" d="M8.70769 13.393L13.5956 18.7471C14.1519 19.3565 15.0478 19.3496 15.5965 18.7317C16.1452 18.1138 16.139 17.1188 15.5827 16.5094L11.4655 11.9995L15.5827 7.48963C16.139 6.88019 16.1452 5.88521 15.5965 5.26728C15.0478 4.64935 14.1519 4.64247 13.5956 5.2519L8.70768 10.606C8.60161 10.6746 8.50188 10.7597 8.41156 10.8615C8.13181 11.1765 7.99629 11.5895 8.00438 11.9995C7.99629 12.4095 8.13181 12.8225 8.41156 13.1375C8.50188 13.2393 8.60161 13.3244 8.70769 13.393Z" fill="#979797"/>
</svg>
