<svg width="87" height="75" viewBox="0 0 87 75" fill="none" xmlns="http://www.w3.org/2000/svg">
<path d="M51.2031 34.3066V22.8848H54.3047V34.3066H51.2031ZM66.4766 28.3535C66.4766 30.2598 65.9505 31.7285 64.8984 32.7598C63.8516 33.791 62.3776 34.3066 60.4766 34.3066H56.7812V22.8848H60.7344C62.5677 22.8848 63.9818 23.3535 64.9766 24.291C65.9766 25.2285 66.4766 26.5827 66.4766 28.3535ZM63.2734 28.4629C63.2734 27.416 63.0651 26.64 62.6484 26.1348C62.237 25.6296 61.6094 25.377 60.7656 25.377H59.8672V31.7754H60.5547C61.4922 31.7754 62.1797 31.5046 62.6172 30.9629C63.0547 30.416 63.2734 29.5827 63.2734 28.4629Z" fill="#979797"/>
<rect x="51.0117" y="58.7881" width="16.6228" height="4" fill="#979797"/>
<rect x="51.0117" y="52.2949" width="35" height="4" fill="#979797"/>
<rect x="51.0117" y="45.8008" width="35" height="4" fill="#979797"/>
<rect x="51.0117" y="39.3066" width="35" height="4" fill="#979797"/>
<path d="M46.7123 55.1311C46.7123 45.7382 44.3909 34.8811 35.0338 34.8811C32.1409 37.7025 28.2123 39.4525 23.8552 39.4525C19.498 39.4525 15.5695 37.7025 12.6766 34.8811C3.31948 34.8811 0.998047 45.7382 0.998047 55.1311C0.998047 60.3454 4.42662 64.5954 8.60519 64.5954H39.1052C43.2838 64.5954 46.7123 60.3454 46.7123 55.1311ZM37.5695 23.4525C37.5695 15.8811 31.4266 9.73821 23.8552 9.73821C16.2838 9.73821 10.1409 15.8811 10.1409 23.4525C10.1409 31.0239 16.2838 37.1668 23.8552 37.1668C31.4266 37.1668 37.5695 31.0239 37.5695 23.4525Z" fill="#1E74AA"/>
</svg>
